
    <svg
    xmlns="http://www.w3.org/2000/svg"
    viewbox="0 0 920 920"
    >
    <style>
      .cell__text {
        font-size: 10px;
        fill: white;
      }
    </style>
      <g transform="translate(480, 390)">
        <rect x="0" y="0" width="10" height="10" />
        <text
          x="0"
          y="5"
          alignment-baseline="center"
          class="cell__text"
        >
          T
        </text>
      </g>
    
      <g transform="translate(400, 400)">
        <rect x="0" y="0" width="10" height="10" />
        <text
          x="0"
          y="5"
          alignment-baseline="center"
          class="cell__text"
        >
          M
        </text>
      </g>
    
      <g transform="translate(410, 400)">
        <rect x="0" y="0" width="10" height="10" />
        <text
          x="0"
          y="5"
          alignment-baseline="center"
          class="cell__text"
        >
          R
        </text>
      </g>
    
      <g transform="translate(420, 400)">
        <rect x="0" y="0" width="10" height="10" />
        <text
          x="0"
          y="5"
          alignment-baseline="center"
          class="cell__text"
        >
          B
        </text>
      </g>
    
      <g transform="translate(430, 400)">
        <rect x="0" y="0" width="10" height="10" />
        <text
          x="0"
          y="5"
          alignment-baseline="center"
          class="cell__text"
        >
          O
        </text>
      </g>
    
      <g transform="translate(440, 400)">
        <rect x="0" y="0" width="10" height="10" />
        <text
          x="0"
          y="5"
          alignment-baseline="center"
          class="cell__text"
        >
          U
        </text>
      </g>
    
      <g transform="translate(450, 400)">
        <rect x="0" y="0" width="10" height="10" />
        <text
          x="0"
          y="5"
          alignment-baseline="center"
          class="cell__text"
        >
          S
        </text>
      </g>
    
      <g transform="translate(460, 400)">
        <rect x="0" y="0" width="10" height="10" />
        <text
          x="0"
          y="5"
          alignment-baseline="center"
          class="cell__text"
        >
          F
        </text>
      </g>
    
      <g transform="translate(470, 400)">
        <rect x="0" y="0" width="10" height="10" />
        <text
          x="0"
          y="5"
          alignment-baseline="center"
          class="cell__text"
        >
          I
        </text>
      </g>
    
      <g transform="translate(480, 400)">
        <rect x="0" y="0" width="10" height="10" />
        <text
          x="0"
          y="5"
          alignment-baseline="center"
          class="cell__text"
        >
          E
        </text>
      </g>
    
      <g transform="translate(490, 400)">
        <rect x="0" y="0" width="10" height="10" />
        <text
          x="0"
          y="5"
          alignment-baseline="center"
          class="cell__text"
        >
          L
        </text>
      </g>
    
      <g transform="translate(500, 400)">
        <rect x="0" y="0" width="10" height="10" />
        <text
          x="0"
          y="5"
          alignment-baseline="center"
          class="cell__text"
        >
          D
        </text>
      </g>
    
      <g transform="translate(400, 410)">
        <rect x="0" y="0" width="10" height="10" />
        <text
          x="0"
          y="5"
          alignment-baseline="center"
          class="cell__text"
        >
          R
        </text>
      </g>
    
      <g transform="translate(480, 410)">
        <rect x="0" y="0" width="10" height="10" />
        <text
          x="0"
          y="5"
          alignment-baseline="center"
          class="cell__text"
        >
          E
        </text>
      </g>
    
      <g transform="translate(500, 410)">
        <rect x="0" y="0" width="10" height="10" />
        <text
          x="0"
          y="5"
          alignment-baseline="center"
          class="cell__text"
        >
          E
        </text>
      </g>
    
      <g transform="translate(550, 410)">
        <rect x="0" y="0" width="10" height="10" />
        <text
          x="0"
          y="5"
          alignment-baseline="center"
          class="cell__text"
        >
          C
        </text>
      </g>
    
      <g transform="translate(390, 420)">
        <rect x="0" y="0" width="10" height="10" />
        <text
          x="0"
          y="5"
          alignment-baseline="center"
          class="cell__text"
        >
          I
        </text>
      </g>
    
      <g transform="translate(400, 420)">
        <rect x="0" y="0" width="10" height="10" />
        <text
          x="0"
          y="5"
          alignment-baseline="center"
          class="cell__text"
        >
          S
        </text>
      </g>
    
      <g transform="translate(410, 420)">
        <rect x="0" y="0" width="10" height="10" />
        <text
          x="0"
          y="5"
          alignment-baseline="center"
          class="cell__text"
        >
          A
        </text>
      </g>
    
      <g transform="translate(420, 420)">
        <rect x="0" y="0" width="10" height="10" />
        <text
          x="0"
          y="5"
          alignment-baseline="center"
          class="cell__text"
        >
          B
        </text>
      </g>
    
      <g transform="translate(430, 420)">
        <rect x="0" y="0" width="10" height="10" />
        <text
          x="0"
          y="5"
          alignment-baseline="center"
          class="cell__text"
        >
          E
        </text>
      </g>
    
      <g transform="translate(440, 420)">
        <rect x="0" y="0" width="10" height="10" />
        <text
          x="0"
          y="5"
          alignment-baseline="center"
          class="cell__text"
        >
          L
        </text>
      </g>
    
      <g transform="translate(450, 420)">
        <rect x="0" y="0" width="10" height="10" />
        <text
          x="0"
          y="5"
          alignment-baseline="center"
          class="cell__text"
        >
          L
        </text>
      </g>
    
      <g transform="translate(460, 420)">
        <rect x="0" y="0" width="10" height="10" />
        <text
          x="0"
          y="5"
          alignment-baseline="center"
          class="cell__text"
        >
          A
        </text>
      </g>
    
      <g transform="translate(480, 420)">
        <rect x="0" y="0" width="10" height="10" />
        <text
          x="0"
          y="5"
          alignment-baseline="center"
          class="cell__text"
        >
          G
        </text>
      </g>
    
      <g transform="translate(500, 420)">
        <rect x="0" y="0" width="10" height="10" />
        <text
          x="0"
          y="5"
          alignment-baseline="center"
          class="cell__text"
        >
          S
        </text>
      </g>
    
      <g transform="translate(510, 420)">
        <rect x="0" y="0" width="10" height="10" />
        <text
          x="0"
          y="5"
          alignment-baseline="center"
          class="cell__text"
        >
          O
        </text>
      </g>
    
      <g transform="translate(520, 420)">
        <rect x="0" y="0" width="10" height="10" />
        <text
          x="0"
          y="5"
          alignment-baseline="center"
          class="cell__text"
        >
          P
        </text>
      </g>
    
      <g transform="translate(530, 420)">
        <rect x="0" y="0" width="10" height="10" />
        <text
          x="0"
          y="5"
          alignment-baseline="center"
          class="cell__text"
        >
          H
        </text>
      </g>
    
      <g transform="translate(540, 420)">
        <rect x="0" y="0" width="10" height="10" />
        <text
          x="0"
          y="5"
          alignment-baseline="center"
          class="cell__text"
        >
          I
        </text>
      </g>
    
      <g transform="translate(550, 420)">
        <rect x="0" y="0" width="10" height="10" />
        <text
          x="0"
          y="5"
          alignment-baseline="center"
          class="cell__text"
        >
          A
        </text>
      </g>
    
      <g transform="translate(400, 430)">
        <rect x="0" y="0" width="10" height="10" />
        <text
          x="0"
          y="5"
          alignment-baseline="center"
          class="cell__text"
        >
          S
        </text>
      </g>
    
      <g transform="translate(460, 430)">
        <rect x="0" y="0" width="10" height="10" />
        <text
          x="0"
          y="5"
          alignment-baseline="center"
          class="cell__text"
        >
          V
        </text>
      </g>
    
      <g transform="translate(480, 430)">
        <rect x="0" y="0" width="10" height="10" />
        <text
          x="0"
          y="5"
          alignment-baseline="center"
          class="cell__text"
        >
          A
        </text>
      </g>
    
      <g transform="translate(500, 430)">
        <rect x="0" y="0" width="10" height="10" />
        <text
          x="0"
          y="5"
          alignment-baseline="center"
          class="cell__text"
        >
          T
        </text>
      </g>
    
      <g transform="translate(550, 430)">
        <rect x="0" y="0" width="10" height="10" />
        <text
          x="0"
          y="5"
          alignment-baseline="center"
          class="cell__text"
        >
          L
        </text>
      </g>
    
      <g transform="translate(560, 430)">
        <rect x="0" y="0" width="10" height="10" />
        <text
          x="0"
          y="5"
          alignment-baseline="center"
          class="cell__text"
        >
          E
        </text>
      </g>
    
      <g transform="translate(570, 430)">
        <rect x="0" y="0" width="10" height="10" />
        <text
          x="0"
          y="5"
          alignment-baseline="center"
          class="cell__text"
        >
          W
        </text>
      </g>
    
      <g transform="translate(580, 430)">
        <rect x="0" y="0" width="10" height="10" />
        <text
          x="0"
          y="5"
          alignment-baseline="center"
          class="cell__text"
        >
          I
        </text>
      </g>
    
      <g transform="translate(590, 430)">
        <rect x="0" y="0" width="10" height="10" />
        <text
          x="0"
          y="5"
          alignment-baseline="center"
          class="cell__text"
        >
          S
        </text>
      </g>
    
      <g transform="translate(400, 440)">
        <rect x="0" y="0" width="10" height="10" />
        <text
          x="0"
          y="5"
          alignment-baseline="center"
          class="cell__text"
        >
          H
        </text>
      </g>
    
      <g transform="translate(460, 440)">
        <rect x="0" y="0" width="10" height="10" />
        <text
          x="0"
          y="5"
          alignment-baseline="center"
          class="cell__text"
        >
          A
        </text>
      </g>
    
      <g transform="translate(480, 440)">
        <rect x="0" y="0" width="10" height="10" />
        <text
          x="0"
          y="5"
          alignment-baseline="center"
          class="cell__text"
        >
          N
        </text>
      </g>
    
      <g transform="translate(500, 440)">
        <rect x="0" y="0" width="10" height="10" />
        <text
          x="0"
          y="5"
          alignment-baseline="center"
          class="cell__text"
        >
          I
        </text>
      </g>
    
      <g transform="translate(510, 440)">
        <rect x="0" y="0" width="10" height="10" />
        <text
          x="0"
          y="5"
          alignment-baseline="center"
          class="cell__text"
        >
          S
        </text>
      </g>
    
      <g transform="translate(520, 440)">
        <rect x="0" y="0" width="10" height="10" />
        <text
          x="0"
          y="5"
          alignment-baseline="center"
          class="cell__text"
        >
          A
        </text>
      </g>
    
      <g transform="translate(530, 440)">
        <rect x="0" y="0" width="10" height="10" />
        <text
          x="0"
          y="5"
          alignment-baseline="center"
          class="cell__text"
        >
          A
        </text>
      </g>
    
      <g transform="translate(540, 440)">
        <rect x="0" y="0" width="10" height="10" />
        <text
          x="0"
          y="5"
          alignment-baseline="center"
          class="cell__text"
        >
          C
        </text>
      </g>
    
      <g transform="translate(550, 440)">
        <rect x="0" y="0" width="10" height="10" />
        <text
          x="0"
          y="5"
          alignment-baseline="center"
          class="cell__text"
        >
          L
        </text>
      </g>
    
      <g transform="translate(570, 440)">
        <rect x="0" y="0" width="10" height="10" />
        <text
          x="0"
          y="5"
          alignment-baseline="center"
          class="cell__text"
        >
          I
        </text>
      </g>
    
      <g transform="translate(390, 450)">
        <rect x="0" y="0" width="10" height="10" />
        <text
          x="0"
          y="5"
          alignment-baseline="center"
          class="cell__text"
        >
          K
        </text>
      </g>
    
      <g transform="translate(400, 450)">
        <rect x="0" y="0" width="10" height="10" />
        <text
          x="0"
          y="5"
          alignment-baseline="center"
          class="cell__text"
        >
          A
        </text>
      </g>
    
      <g transform="translate(410, 450)">
        <rect x="0" y="0" width="10" height="10" />
        <text
          x="0"
          y="5"
          alignment-baseline="center"
          class="cell__text"
        >
          Y
        </text>
      </g>
    
      <g transform="translate(420, 450)">
        <rect x="0" y="0" width="10" height="10" />
        <text
          x="0"
          y="5"
          alignment-baseline="center"
          class="cell__text"
        >
          L
        </text>
      </g>
    
      <g transform="translate(430, 450)">
        <rect x="0" y="0" width="10" height="10" />
        <text
          x="0"
          y="5"
          alignment-baseline="center"
          class="cell__text"
        >
          A
        </text>
      </g>
    
      <g transform="translate(440, 450)">
        <rect x="0" y="0" width="10" height="10" />
        <text
          x="0"
          y="5"
          alignment-baseline="center"
          class="cell__text"
        >
          H
        </text>
      </g>
    
      <g transform="translate(450, 450)">
        <rect x="0" y="0" width="10" height="10" />
        <text
          x="0"
          y="5"
          alignment-baseline="center"
          class="cell__text"
        >
          R
        </text>
      </g>
    
      <g transform="translate(460, 450)">
        <rect x="0" y="0" width="10" height="10" />
        <text
          x="0"
          y="5"
          alignment-baseline="center"
          class="cell__text"
        >
          O
        </text>
      </g>
    
      <g transform="translate(470, 450)">
        <rect x="0" y="0" width="10" height="10" />
        <text
          x="0"
          y="5"
          alignment-baseline="center"
          class="cell__text"
        >
          S
        </text>
      </g>
    
      <g transform="translate(480, 450)">
        <rect x="0" y="0" width="10" height="10" />
        <text
          x="0"
          y="5"
          alignment-baseline="center"
          class="cell__text"
        >
          E
        </text>
      </g>
    
      <g transform="translate(500, 450)">
        <rect x="0" y="0" width="10" height="10" />
        <text
          x="0"
          y="5"
          alignment-baseline="center"
          class="cell__text"
        >
          N
        </text>
      </g>
    
      <g transform="translate(550, 450)">
        <rect x="0" y="0" width="10" height="10" />
        <text
          x="0"
          y="5"
          alignment-baseline="center"
          class="cell__text"
        >
          U
        </text>
      </g>
    
      <g transform="translate(570, 450)">
        <rect x="0" y="0" width="10" height="10" />
        <text
          x="0"
          y="5"
          alignment-baseline="center"
          class="cell__text"
        >
          L
        </text>
      </g>
    
      <g transform="translate(400, 460)">
        <rect x="0" y="0" width="10" height="10" />
        <text
          x="0"
          y="5"
          alignment-baseline="center"
          class="cell__text"
        >
          N
        </text>
      </g>
    
      <g transform="translate(420, 460)">
        <rect x="0" y="0" width="10" height="10" />
        <text
          x="0"
          y="5"
          alignment-baseline="center"
          class="cell__text"
        >
          A
        </text>
      </g>
    
      <g transform="translate(450, 460)">
        <rect x="0" y="0" width="10" height="10" />
        <text
          x="0"
          y="5"
          alignment-baseline="center"
          class="cell__text"
        >
          O
        </text>
      </g>
    
      <g transform="translate(500, 460)">
        <rect x="0" y="0" width="10" height="10" />
        <text
          x="0"
          y="5"
          alignment-baseline="center"
          class="cell__text"
        >
          Y
        </text>
      </g>
    
      <g transform="translate(550, 460)">
        <rect x="0" y="0" width="10" height="10" />
        <text
          x="0"
          y="5"
          alignment-baseline="center"
          class="cell__text"
        >
          M
        </text>
      </g>
    
      <g transform="translate(570, 460)">
        <rect x="0" y="0" width="10" height="10" />
        <text
          x="0"
          y="5"
          alignment-baseline="center"
          class="cell__text"
        >
          L
        </text>
      </g>
    
      <g transform="translate(400, 470)">
        <rect x="0" y="0" width="10" height="10" />
        <text
          x="0"
          y="5"
          alignment-baseline="center"
          class="cell__text"
        >
          D
        </text>
      </g>
    
      <g transform="translate(420, 470)">
        <rect x="0" y="0" width="10" height="10" />
        <text
          x="0"
          y="5"
          alignment-baseline="center"
          class="cell__text"
        >
          C
        </text>
      </g>
    
      <g transform="translate(450, 470)">
        <rect x="0" y="0" width="10" height="10" />
        <text
          x="0"
          y="5"
          alignment-baseline="center"
          class="cell__text"
        >
          B
        </text>
      </g>
    
      <g transform="translate(460, 470)">
        <rect x="0" y="0" width="10" height="10" />
        <text
          x="0"
          y="5"
          alignment-baseline="center"
          class="cell__text"
        >
          I
        </text>
      </g>
    
      <g transform="translate(470, 470)">
        <rect x="0" y="0" width="10" height="10" />
        <text
          x="0"
          y="5"
          alignment-baseline="center"
          class="cell__text"
        >
          L
        </text>
      </g>
    
      <g transform="translate(480, 470)">
        <rect x="0" y="0" width="10" height="10" />
        <text
          x="0"
          y="5"
          alignment-baseline="center"
          class="cell__text"
        >
          L
        </text>
      </g>
    
      <g transform="translate(490, 470)">
        <rect x="0" y="0" width="10" height="10" />
        <text
          x="0"
          y="5"
          alignment-baseline="center"
          class="cell__text"
        >
          Y
        </text>
      </g>
    
      <g transform="translate(400, 480)">
        <rect x="0" y="0" width="10" height="10" />
        <text
          x="0"
          y="5"
          alignment-baseline="center"
          class="cell__text"
        >
          L
        </text>
      </g>
    
      <g transform="translate(420, 480)">
        <rect x="0" y="0" width="10" height="10" />
        <text
          x="0"
          y="5"
          alignment-baseline="center"
          class="cell__text"
        >
          E
        </text>
      </g>
    
      <g transform="translate(450, 480)">
        <rect x="0" y="0" width="10" height="10" />
        <text
          x="0"
          y="5"
          alignment-baseline="center"
          class="cell__text"
        >
          B
        </text>
      </g>
    
      <g transform="translate(400, 490)">
        <rect x="0" y="0" width="10" height="10" />
        <text
          x="0"
          y="5"
          alignment-baseline="center"
          class="cell__text"
        >
          E
        </text>
      </g>
    
      <g transform="translate(420, 490)">
        <rect x="0" y="0" width="10" height="10" />
        <text
          x="0"
          y="5"
          alignment-baseline="center"
          class="cell__text"
        >
          Y
        </text>
      </g>
    
      <g transform="translate(450, 490)">
        <rect x="0" y="0" width="10" height="10" />
        <text
          x="0"
          y="5"
          alignment-baseline="center"
          class="cell__text"
        >
          I
        </text>
      </g>
    
      <g transform="translate(400, 500)">
        <rect x="0" y="0" width="10" height="10" />
        <text
          x="0"
          y="5"
          alignment-baseline="center"
          class="cell__text"
        >
          Y
        </text>
      </g>
    
      <g transform="translate(420, 500)">
        <rect x="0" y="0" width="10" height="10" />
        <text
          x="0"
          y="5"
          alignment-baseline="center"
          class="cell__text"
        >
          A
        </text>
      </g>
    
      <g transform="translate(450, 500)">
        <rect x="0" y="0" width="10" height="10" />
        <text
          x="0"
          y="5"
          alignment-baseline="center"
          class="cell__text"
        >
          E
        </text>
      </g>
    
      <g transform="translate(460, 500)">
        <rect x="0" y="0" width="10" height="10" />
        <text
          x="0"
          y="5"
          alignment-baseline="center"
          class="cell__text"
        >
          T
        </text>
      </g>
    
      <g transform="translate(470, 500)">
        <rect x="0" y="0" width="10" height="10" />
        <text
          x="0"
          y="5"
          alignment-baseline="center"
          class="cell__text"
        >
          H
        </text>
      </g>
    
      <g transform="translate(480, 500)">
        <rect x="0" y="0" width="10" height="10" />
        <text
          x="0"
          y="5"
          alignment-baseline="center"
          class="cell__text"
        >
          A
        </text>
      </g>
    
      <g transform="translate(490, 500)">
        <rect x="0" y="0" width="10" height="10" />
        <text
          x="0"
          y="5"
          alignment-baseline="center"
          class="cell__text"
        >
          N
        </text>
      </g>
    
      <g transform="translate(420, 510)">
        <rect x="0" y="0" width="10" height="10" />
        <text
          x="0"
          y="5"
          alignment-baseline="center"
          class="cell__text"
        >
          N
        </text>
      </g>
    
      <g transform="translate(470, 510)">
        <rect x="0" y="0" width="10" height="10" />
        <text
          x="0"
          y="5"
          alignment-baseline="center"
          class="cell__text"
        >
          A
        </text>
      </g>
    
      <g transform="translate(370, 520)">
        <rect x="0" y="0" width="10" height="10" />
        <text
          x="0"
          y="5"
          alignment-baseline="center"
          class="cell__text"
        >
          J
        </text>
      </g>
    
      <g transform="translate(380, 520)">
        <rect x="0" y="0" width="10" height="10" />
        <text
          x="0"
          y="5"
          alignment-baseline="center"
          class="cell__text"
        >
          A
        </text>
      </g>
    
      <g transform="translate(390, 520)">
        <rect x="0" y="0" width="10" height="10" />
        <text
          x="0"
          y="5"
          alignment-baseline="center"
          class="cell__text"
        >
          Z
        </text>
      </g>
    
      <g transform="translate(400, 520)">
        <rect x="0" y="0" width="10" height="10" />
        <text
          x="0"
          y="5"
          alignment-baseline="center"
          class="cell__text"
        >
          M
        </text>
      </g>
    
      <g transform="translate(410, 520)">
        <rect x="0" y="0" width="10" height="10" />
        <text
          x="0"
          y="5"
          alignment-baseline="center"
          class="cell__text"
        >
          I
        </text>
      </g>
    
      <g transform="translate(420, 520)">
        <rect x="0" y="0" width="10" height="10" />
        <text
          x="0"
          y="5"
          alignment-baseline="center"
          class="cell__text"
        >
          N
        </text>
      </g>
    
      <g transform="translate(430, 520)">
        <rect x="0" y="0" width="10" height="10" />
        <text
          x="0"
          y="5"
          alignment-baseline="center"
          class="cell__text"
        >
          E
        </text>
      </g>
    
      <g transform="translate(470, 520)">
        <rect x="0" y="0" width="10" height="10" />
        <text
          x="0"
          y="5"
          alignment-baseline="center"
          class="cell__text"
        >
          R
        </text>
      </g>
    
      <g transform="translate(480, 520)">
        <rect x="0" y="0" width="10" height="10" />
        <text
          x="0"
          y="5"
          alignment-baseline="center"
          class="cell__text"
        >
          I
        </text>
      </g>
    
      <g transform="translate(490, 520)">
        <rect x="0" y="0" width="10" height="10" />
        <text
          x="0"
          y="5"
          alignment-baseline="center"
          class="cell__text"
        >
          O
        </text>
      </g>
    
      <g transform="translate(370, 530)">
        <rect x="0" y="0" width="10" height="10" />
        <text
          x="0"
          y="5"
          alignment-baseline="center"
          class="cell__text"
        >
          A
        </text>
      </g>
    
      <g transform="translate(400, 530)">
        <rect x="0" y="0" width="10" height="10" />
        <text
          x="0"
          y="5"
          alignment-baseline="center"
          class="cell__text"
        >
          A
        </text>
      </g>
    
      <g transform="translate(420, 530)">
        <rect x="0" y="0" width="10" height="10" />
        <text
          x="0"
          y="5"
          alignment-baseline="center"
          class="cell__text"
        >
          E
        </text>
      </g>
    
      <g transform="translate(470, 530)">
        <rect x="0" y="0" width="10" height="10" />
        <text
          x="0"
          y="5"
          alignment-baseline="center"
          class="cell__text"
        >
          R
        </text>
      </g>
    
      <g transform="translate(350, 540)">
        <rect x="0" y="0" width="10" height="10" />
        <text
          x="0"
          y="5"
          alignment-baseline="center"
          class="cell__text"
        >
          M
        </text>
      </g>
    
      <g transform="translate(370, 540)">
        <rect x="0" y="0" width="10" height="10" />
        <text
          x="0"
          y="5"
          alignment-baseline="center"
          class="cell__text"
        >
          S
        </text>
      </g>
    
      <g transform="translate(400, 540)">
        <rect x="0" y="0" width="10" height="10" />
        <text
          x="0"
          y="5"
          alignment-baseline="center"
          class="cell__text"
        >
          N
        </text>
      </g>
    
      <g transform="translate(470, 540)">
        <rect x="0" y="0" width="10" height="10" />
        <text
          x="0"
          y="5"
          alignment-baseline="center"
          class="cell__text"
        >
          Y
        </text>
      </g>
    
      <g transform="translate(340, 550)">
        <rect x="0" y="0" width="10" height="10" />
        <text
          x="0"
          y="5"
          alignment-baseline="center"
          class="cell__text"
        >
          J
        </text>
      </g>
    
      <g transform="translate(350, 550)">
        <rect x="0" y="0" width="10" height="10" />
        <text
          x="0"
          y="5"
          alignment-baseline="center"
          class="cell__text"
        >
          A
        </text>
      </g>
    
      <g transform="translate(360, 550)">
        <rect x="0" y="0" width="10" height="10" />
        <text
          x="0"
          y="5"
          alignment-baseline="center"
          class="cell__text"
        >
          I
        </text>
      </g>
    
      <g transform="translate(370, 550)">
        <rect x="0" y="0" width="10" height="10" />
        <text
          x="0"
          y="5"
          alignment-baseline="center"
          class="cell__text"
        >
          M
        </text>
      </g>
    
      <g transform="translate(380, 550)">
        <rect x="0" y="0" width="10" height="10" />
        <text
          x="0"
          y="5"
          alignment-baseline="center"
          class="cell__text"
        >
          I
        </text>
      </g>
    
      <g transform="translate(390, 550)">
        <rect x="0" y="0" width="10" height="10" />
        <text
          x="0"
          y="5"
          alignment-baseline="center"
          class="cell__text"
        >
          E
        </text>
      </g>
    
      <g transform="translate(400, 550)">
        <rect x="0" y="0" width="10" height="10" />
        <text
          x="0"
          y="5"
          alignment-baseline="center"
          class="cell__text"
        >
          S
        </text>
      </g>
    
      <g transform="translate(350, 560)">
        <rect x="0" y="0" width="10" height="10" />
        <text
          x="0"
          y="5"
          alignment-baseline="center"
          class="cell__text"
        >
          R
        </text>
      </g>
    
      <g transform="translate(370, 560)">
        <rect x="0" y="0" width="10" height="10" />
        <text
          x="0"
          y="5"
          alignment-baseline="center"
          class="cell__text"
        >
          I
        </text>
      </g>
    
      <g transform="translate(400, 560)">
        <rect x="0" y="0" width="10" height="10" />
        <text
          x="0"
          y="5"
          alignment-baseline="center"
          class="cell__text"
        >
          O
        </text>
      </g>
    
      <g transform="translate(440, 560)">
        <rect x="0" y="0" width="10" height="10" />
        <text
          x="0"
          y="5"
          alignment-baseline="center"
          class="cell__text"
        >
          X
        </text>
      </g>
    
      <g transform="translate(350, 570)">
        <rect x="0" y="0" width="10" height="10" />
        <text
          x="0"
          y="5"
          alignment-baseline="center"
          class="cell__text"
        >
          Y
        </text>
      </g>
    
      <g transform="translate(370, 570)">
        <rect x="0" y="0" width="10" height="10" />
        <text
          x="0"
          y="5"
          alignment-baseline="center"
          class="cell__text"
        >
          N
        </text>
      </g>
    
      <g transform="translate(390, 570)">
        <rect x="0" y="0" width="10" height="10" />
        <text
          x="0"
          y="5"
          alignment-baseline="center"
          class="cell__text"
        >
          J
        </text>
      </g>
    
      <g transform="translate(400, 570)">
        <rect x="0" y="0" width="10" height="10" />
        <text
          x="0"
          y="5"
          alignment-baseline="center"
          class="cell__text"
        >
          O
        </text>
      </g>
    
      <g transform="translate(410, 570)">
        <rect x="0" y="0" width="10" height="10" />
        <text
          x="0"
          y="5"
          alignment-baseline="center"
          class="cell__text"
        >
          S
        </text>
      </g>
    
      <g transform="translate(420, 570)">
        <rect x="0" y="0" width="10" height="10" />
        <text
          x="0"
          y="5"
          alignment-baseline="center"
          class="cell__text"
        >
          H
        </text>
      </g>
    
      <g transform="translate(430, 570)">
        <rect x="0" y="0" width="10" height="10" />
        <text
          x="0"
          y="5"
          alignment-baseline="center"
          class="cell__text"
        >
          U
        </text>
      </g>
    
      <g transform="translate(440, 570)">
        <rect x="0" y="0" width="10" height="10" />
        <text
          x="0"
          y="5"
          alignment-baseline="center"
          class="cell__text"
        >
          A
        </text>
      </g>
    
      <g transform="translate(330, 580)">
        <rect x="0" y="0" width="10" height="10" />
        <text
          x="0"
          y="5"
          alignment-baseline="center"
          class="cell__text"
        >
          K
        </text>
      </g>
    
      <g transform="translate(340, 580)">
        <rect x="0" y="0" width="10" height="10" />
        <text
          x="0"
          y="5"
          alignment-baseline="center"
          class="cell__text"
        >
          I
        </text>
      </g>
    
      <g transform="translate(350, 580)">
        <rect x="0" y="0" width="10" height="10" />
        <text
          x="0"
          y="5"
          alignment-baseline="center"
          class="cell__text"
        >
          A
        </text>
      </g>
    
      <g transform="translate(360, 580)">
        <rect x="0" y="0" width="10" height="10" />
        <text
          x="0"
          y="5"
          alignment-baseline="center"
          class="cell__text"
        >
          N
        </text>
      </g>
    
      <g transform="translate(370, 580)">
        <rect x="0" y="0" width="10" height="10" />
        <text
          x="0"
          y="5"
          alignment-baseline="center"
          class="cell__text"
        >
          E
        </text>
      </g>
    
      <g transform="translate(400, 580)">
        <rect x="0" y="0" width="10" height="10" />
        <text
          x="0"
          y="5"
          alignment-baseline="center"
          class="cell__text"
        >
          R
        </text>
      </g>
    
      <g transform="translate(440, 580)">
        <rect x="0" y="0" width="10" height="10" />
        <text
          x="0"
          y="5"
          alignment-baseline="center"
          class="cell__text"
        >
          N
        </text>
      </g>
    
      <g transform="translate(350, 590)">
        <rect x="0" y="0" width="10" height="10" />
        <text
          x="0"
          y="5"
          alignment-baseline="center"
          class="cell__text"
        >
          M
        </text>
      </g>
    
      <g transform="translate(440, 590)">
        <rect x="0" y="0" width="10" height="10" />
        <text
          x="0"
          y="5"
          alignment-baseline="center"
          class="cell__text"
        >
          D
        </text>
      </g>
    
      <g transform="translate(450, 590)">
        <rect x="0" y="0" width="10" height="10" />
        <text
          x="0"
          y="5"
          alignment-baseline="center"
          class="cell__text"
        >
          Y
        </text>
      </g>
    
      <g transform="translate(460, 590)">
        <rect x="0" y="0" width="10" height="10" />
        <text
          x="0"
          y="5"
          alignment-baseline="center"
          class="cell__text"
        >
          L
        </text>
      </g>
    
      <g transform="translate(470, 590)">
        <rect x="0" y="0" width="10" height="10" />
        <text
          x="0"
          y="5"
          alignment-baseline="center"
          class="cell__text"
        >
          A
        </text>
      </g>
    
      <g transform="translate(480, 590)">
        <rect x="0" y="0" width="10" height="10" />
        <text
          x="0"
          y="5"
          alignment-baseline="center"
          class="cell__text"
        >
          N
        </text>
      </g>
    
      <g transform="translate(440, 600)">
        <rect x="0" y="0" width="10" height="10" />
        <text
          x="0"
          y="5"
          alignment-baseline="center"
          class="cell__text"
        >
          E
        </text>
      </g>
    
      <g transform="translate(440, 610)">
        <rect x="0" y="0" width="10" height="10" />
        <text
          x="0"
          y="5"
          alignment-baseline="center"
          class="cell__text"
        >
          R
        </text>
      </g>
    
      <g transform="translate(450, 610)">
        <rect x="0" y="0" width="10" height="10" />
        <text
          x="0"
          y="5"
          alignment-baseline="center"
          class="cell__text"
        >
          E
        </text>
      </g>
    
      <g transform="translate(460, 610)">
        <rect x="0" y="0" width="10" height="10" />
        <text
          x="0"
          y="5"
          alignment-baseline="center"
          class="cell__text"
        >
          E
        </text>
      </g>
    
      <g transform="translate(470, 610)">
        <rect x="0" y="0" width="10" height="10" />
        <text
          x="0"
          y="5"
          alignment-baseline="center"
          class="cell__text"
        >
          C
        </text>
      </g>
    
      <g transform="translate(480, 610)">
        <rect x="0" y="0" width="10" height="10" />
        <text
          x="0"
          y="5"
          alignment-baseline="center"
          class="cell__text"
        >
          E
        </text>
      </g>
    </svg>